<!-- facebook -->
<svg xmlns="http://www.w3.org/2000/svg" x="0px" y="0px" width="100" height="100" viewBox="0 0 48 48">
        <path
            d="M42,11.5v25c0,3.03-2.47,5.5-5.5,5.5H31V28h3.62c0.51,0,0.94-0.38,1-0.88l0.37-3c0.04-0.28-0.05-0.57-0.24-0.78 C35.56,23.12,35.29,23,35,23h-4v-3.5c0-1.1,0.9-2,2-2h2c0.55,0,1-0.45,1-1v-3.38c0-0.51-0.4-0.94-0.91-0.99 C35.03,12.12,33.62,12,31.83,12c-4.4,0-6.83,2.62-6.83,7.37V23h-4c-0.55,0-1,0.45-1,1v3c0,0.55,0.45,1,1,1h4v14H11.5 C8.47,42,6,39.53,6,36.5v-25C6,8.47,8.47,6,11.5,6h25C39.53,6,42,8.47,42,11.5z">
        </path>
    </svg>
<!-- twitter -->
    <svg xmlns="http://www.w3.org/2000/svg" x="0px" y="0px" width="100" height="100" viewBox="0 0 48 48">
        <path fill="#03A9F4"
            d="M42,12.429c-1.323,0.586-2.746,0.977-4.247,1.162c1.526-0.906,2.7-2.351,3.251-4.058c-1.428,0.837-3.01,1.452-4.693,1.776C34.967,9.884,33.05,9,30.926,9c-4.08,0-7.387,3.278-7.387,7.32c0,0.572,0.067,1.129,0.193,1.67c-6.138-0.308-11.582-3.226-15.224-7.654c-0.64,1.082-1,2.349-1,3.686c0,2.541,1.301,4.778,3.285,6.096c-1.211-0.037-2.351-0.374-3.349-0.914c0,0.022,0,0.055,0,0.086c0,3.551,2.547,6.508,5.923,7.181c-0.617,0.169-1.269,0.263-1.941,0.263c-0.477,0-0.942-0.054-1.392-0.135c0.94,2.902,3.667,5.023,6.898,5.086c-2.528,1.96-5.712,3.134-9.174,3.134c-0.598,0-1.183-0.034-1.761-0.104C9.268,36.786,13.152,38,17.321,38c13.585,0,21.017-11.156,21.017-20.834c0-0.317-0.01-0.633-0.025-0.945C39.763,15.197,41.013,13.905,42,12.429">
        </path>
    </svg>
<!-- google -->
    <svg xmlns="http://www.w3.org/2000/svg" x="0px" y="0px" width="100" height="100" viewBox="0 0 50 50">
        <path
            d="M 26 2 C 13.308594 2 3 12.308594 3 25 C 3 37.691406 13.308594 48 26 48 C 35.917969 48 41.972656 43.4375 45.125 37.78125 C 48.277344 32.125 48.675781 25.480469 47.71875 20.9375 L 47.53125 20.15625 L 46.75 20.15625 L 26 20.125 L 25 20.125 L 25 30.53125 L 36.4375 30.53125 C 34.710938 34.53125 31.195313 37.28125 26 37.28125 C 19.210938 37.28125 13.71875 31.789063 13.71875 25 C 13.71875 18.210938 19.210938 12.71875 26 12.71875 C 29.050781 12.71875 31.820313 13.847656 33.96875 15.6875 L 34.6875 16.28125 L 41.53125 9.4375 L 42.25 8.6875 L 41.5 8 C 37.414063 4.277344 31.960938 2 26 2 Z M 26 4 C 31.074219 4 35.652344 5.855469 39.28125 8.84375 L 34.46875 13.65625 C 32.089844 11.878906 29.199219 10.71875 26 10.71875 C 18.128906 10.71875 11.71875 17.128906 11.71875 25 C 11.71875 32.871094 18.128906 39.28125 26 39.28125 C 32.550781 39.28125 37.261719 35.265625 38.9375 29.8125 L 39.34375 28.53125 L 27 28.53125 L 27 22.125 L 45.84375 22.15625 C 46.507813 26.191406 46.066406 31.984375 43.375 36.8125 C 40.515625 41.9375 35.320313 46 26 46 C 14.386719 46 5 36.609375 5 25 C 5 13.390625 14.386719 4 26 4 Z">
        </path>
    </svg>